<?xml version="1.0" standalone="no"?>
<!DOCTYPE svg PUBLIC "-//W3C//DTD SVG 1.1//EN"
"http://www.w3.org/Graphics/SVG/1.1/DTD/svg11.dtd">

<svg width="250" height="102" view_box="0 0 250 102"
xmlns="http://www.w3.org/2000/svg"
xmlns:link="http://www.w3.org/1999/xlink">\n\n<desc>Généré par Mocodo 2.3.7 le Wed, 31 Mar 2021 02:23:13</desc>

<rect id="frame" x="0" y="0" width="250" height="102" fill="#ffffbf" stroke="none" stroke-width="0"/>

<!-- Association possede -->
<line x1="37" y1="51" x2="129" y2="51" stroke="#f46d43" stroke-width="2"/>
<text x="70" y="68.0" fill="#4575b4" font-family="Verdana" font-size="12">1,1</text>
<line x1="217" y1="51" x2="129" y2="51" stroke="#f46d43" stroke-width="2"/>
<text x="166" y="68.0" fill="#4575b4" font-family="Verdana" font-size="12">0,N</text>
<g id="association-possede">
	<path d="M 147 26 a 14 14 90 0 1 14 14 V 51 h -64 V 40 a 14 14 90 0 1 14 -14" fill="#fdae61" stroke="#fdae61" stroke-width="0"/>
	<path d="M 161 51.0 v 11 a 14 14 90 0 1 -14 14 H 111 a 14 14 90 0 1 -14 -14 V 51.0 H 64" fill="#fee090" stroke="#fee090" stroke-width="0"/>
	<rect x="97" y="26" width="64" height="50" fill="none" rx="14" stroke="#f46d43" stroke-width="2"/>
	<line x1="97" y1="51" x2="161" y2="51" stroke="#f46d43" stroke-width="1"/>
	<text x="104" y="43.7" fill="#000000" font-family="Verdana" font-size="12">possede</text>
</g>

<!-- Entity POST -->
<g id="entity-POST">
	<g id="frame-POST">
		<rect x="9" y="9" width="56" height="25" fill="#abd9e9" stroke="#abd9e9" stroke-width="0"/>
		<rect x="9" y="34.0" width="56" height="59" fill="#e0f3f8" stroke="#e0f3f8" stroke-width="0"/>
		<rect x="9" y="9" width="56" height="84" fill="none" stroke="#74add1" stroke-width="2"/>
		<line x1="9" y1="34" x2="65" y2="34" stroke="#74add1" stroke-width="1"/>
	</g>
	<text x="20" y="26.7" fill="#000000" font-family="Verdana" font-size="12">POST</text>
	<text x="14" y="51.8" fill="#000000" font-family="Verdana" font-size="12">title</text>
	<text x="14" y="68.8" fill="#000000" font-family="Verdana" font-size="12">exerpt</text>
	<text x="14" y="85.8" fill="#000000" font-family="Verdana" font-size="12">content</text>
</g>

<!-- Entity LABEL -->
<g id="entity-LABEL">
	<g id="frame-LABEL">
		<rect x="193" y="26" width="48" height="25" fill="#abd9e9" stroke="#abd9e9" stroke-width="0"/>
		<rect x="193" y="51.0" width="48" height="25" fill="#e0f3f8" stroke="#e0f3f8" stroke-width="0"/>
		<rect x="193" y="26" width="48" height="50" fill="none" stroke="#74add1" stroke-width="2"/>
		<line x1="193" y1="51" x2="241" y2="51" stroke="#74add1" stroke-width="1"/>
	</g>
	<text x="198" y="43.7" fill="#000000" font-family="Verdana" font-size="12">LABEL</text>
	<text x="198" y="68.8" fill="#000000" font-family="Verdana" font-size="12">name</text>
</g>
</svg>